<?xml version="1.0" encoding="utf-8" standalone="no"?>
<!DOCTYPE svg PUBLIC "-//W3C//DTD SVG 1.1//EN"
  "http://www.w3.org/Graphics/SVG/1.1/DTD/svg11.dtd">
<!-- Created with matplotlib (http://matplotlib.org/) -->
<svg height="279pt" version="1.1" viewBox="0 0 686 279" width="686pt" xmlns="http://www.w3.org/2000/svg" xmlns:xlink="http://www.w3.org/1999/xlink">
 <defs>
  <style type="text/css">
*{stroke-linecap:butt;stroke-linejoin:round;}
  </style>
 </defs>
 <g id="figure_1">
  <g id="patch_1">
   <path d="
M0 279.877
L686.941 279.877
L686.941 0
L0 0
z
" style="fill:none;"/>
  </g>
  <g id="axes_1">
   <g id="patch_2">
    <path d="
M53.5819 243.087
L667.382 243.087
L667.382 12.6872
L53.5819 12.6872
z
" style="fill:#ffffff;opacity:0.7;"/>
   </g>
   <g id="line2d_1">
    <path clip-path="url(#pda7e10456e)" d="
M53.5819 237.979
L79.1569 233.894
L94.1173 234.937
L104.732 228.718
L119.692 233.185
L130.307 229.215
L134.653 234.044
L145.267 230.71
L155.882 226.062
L160.228 232.159
L170.842 229.336
L181.457 226.346
L185.803 230.416
L196.417 227.449
L207.032 223.072
L211.378 229.641
L221.992 227.09
L232.607 224.425
L236.953 228.35
L247.567 225.407
L258.182 221.439
L262.528 227.532
L273.142 225.233
L283.757 222.697
L288.103 226.495
L298.717 224.122
L309.332 220.991
L313.678 226.392
L324.292 224.276
L334.907 222.596
L339.253 225.645
L349.867 223.286
L360.482 220.743
L364.828 225.292
L375.442 223.923
L386.057 222.57
L390.403 225.254
L401.017 223.829
L411.632 222.769
L415.978 226.151
L426.592 224.657
L437.207 224.869
L441.553 227.317
L452.167 227.843
L462.782 226.986
L467.128 230.206
L477.742 231.764
L488.357 232.238
L492.703 234.026
L503.317 234.113
L513.932 233.973
L518.278 235.249
L528.892 235.778
L539.507 236.94
L543.853 236.555
L554.467 236.659
L565.082 237.754
L569.428 237.922
L580.042 236.965
L590.657 236.781
L595.003 237.211
L605.617 237.407
L616.232 236.974
L620.578 237.449
L631.192 237.508
L641.807 238.084
L646.153 237.725
L656.767 238.293
L667.382 237.91" style="fill:none;stroke:#87694f;stroke-dasharray:5.932374,4.745900;stroke-dashoffset:0.0;stroke-width:1.1864749;"/>
   </g>
   <g id="line2d_2">
    <path clip-path="url(#pda7e10456e)" d="
M53.5819 235.908
L79.1569 229.025
L94.1173 214.7
L104.732 192.361
L119.692 169.105
L130.307 146.437
L134.653 173.658
L145.267 132.962
L155.882 125.115
L160.228 155.297
L170.842 113.989
L181.457 89.9332
L185.803 100.924
L196.417 66.9304
L207.032 58.568
L211.378 62.926
L221.992 32.9177
L232.607 32.1275
L236.953 39.7813
L247.567 31.2334
L258.182 23.7971
L262.528 79.5801
L273.142 27.2159
L283.757 37.7076
L288.103 76.6098
L298.717 48.3585
L309.332 58.1046
L313.678 80.9058
L324.292 83.8217
L334.907 81.2754
L339.253 75.442
L349.867 90.4907
L360.482 96.6295
L364.828 90.2699
L375.442 100.535
L386.057 111.907
L390.403 115.845
L401.017 121.264
L411.632 127.349
L415.978 129.339
L426.592 132.29
L437.207 134.948
L441.553 133.59
L452.167 141.577
L462.782 138.981" style="fill:none;stroke:#44a730;stroke-dasharray:3.424876,1.957072;stroke-dashoffset:0.0;stroke-width:1.22317;"/>
   </g>
   <g id="line2d_3">
    <path clip-path="url(#pda7e10456e)" d="
M53.5819 239.957
L79.1569 233.655
L94.1173 218.111
L104.732 195.14
L119.692 190.785
L130.307 168.903
L134.653 188.702
L145.267 136.176
L155.882 126.167
L160.228 190.735
L170.842 135.367
L181.457 114.148
L185.803 192.71
L196.417 158.162
L207.032 150.006
L211.378 163.257
L221.992 146.649
L232.607 142.097
L236.953 184.219
L247.567 153.104
L258.182 139.332
L262.528 180.107
L273.142 150.049
L283.757 137.928
L288.103 182.978
L298.717 160.07
L309.332 138.158
L313.678 183.289
L324.292 164.137
L334.907 146.023
L339.253 167.016
L349.867 160.222
L360.482 175.842
L364.828 180.464
L375.442 166.447
L386.057 184.146
L390.403 178.849
L401.017 182.184
L411.632 183.575
L415.978 180.069
L426.592 188.028
L437.207 193.895
L441.553 193.599
L452.167 190.481
L462.782 199.16
L467.128 194.099
L477.742 200.532
L488.357 205.306
L492.703 204.705
L503.317 210.387
L513.932 217.627
L518.278 212.48
L528.892 215.518
L539.507 221.871
L543.853 221.66
L554.467 220.555
L565.082 225.618
L569.428 226.777
L580.042 220.611
L590.657 225.588
L595.003 226.964
L605.617 220.817
L616.232 226.667
L620.578 227.247
L631.192 221.455
L641.807 227.611
L646.153 227.391
L656.767 223.071
L667.382 229.117" style="fill:none;stroke:#bb102b;stroke-dasharray:1.513200,1.513200;stroke-dashoffset:0.0;stroke-width:1.261;"/>
   </g>
   <g id="line2d_4">
    <path clip-path="url(#pda7e10456e)" d="
M53.5819 227.405
L79.1569 235.532
L94.1173 228.964
L104.732 222.967
L119.692 221.756
L130.307 215.663
L134.653 217.397
L145.267 211.587
L155.882 205.239
L160.228 212.578
L170.842 207.682
L181.457 204.275
L185.803 206.617
L196.417 202.988
L207.032 198.978
L211.378 205.182
L221.992 202.047
L232.607 200.127
L236.953 201.936
L247.567 199.052
L258.182 196.033
L262.528 201.53
L273.142 199.24
L283.757 198.38
L288.103 200.248
L298.717 198.973
L309.332 198.124
L313.678 201.606
L324.292 200.733
L334.907 201.168
L339.253 200.378
L349.867 200.326
L360.482 199.828
L364.828 201.877
L375.442 202.287
L386.057 201.096
L390.403 201.822
L401.017 201.093
L411.632 201.355
L415.978 202.634
L426.592 202.102
L437.207 200.841
L441.553 202.863
L452.167 203.593
L462.782 204.615
L467.128 207.361
L477.742 207.795
L488.357 207.691
L492.703 208.932
L503.317 209.111
L513.932 208.093
L518.278 210.789
L528.892 209.291
L539.507 209.407
L543.853 209.851
L554.467 208.633
L565.082 208.462
L569.428 210.069
L580.042 210.407
L590.657 210.511
L595.003 212.815
L605.617 211.138
L616.232 210.826
L620.578 212.262
L631.192 210.791
L641.807 211.532
L646.153 213.317
L656.767 212.626
L667.382 212.681" style="fill:none;stroke:#007ab0;stroke-linecap:square;"/>
   </g>
   <g id="matplotlib.axis_1">
    <g id="xtick_1">
     <g id="line2d_5">
      <path clip-path="url(#pda7e10456e)" d="
M53.5819 243.087
L53.5819 12.6872" style="fill:none;opacity:0.15;stroke:#000000;stroke-dasharray:1.000000,3.000000;stroke-dashoffset:0.0;stroke-width:0.5;"/>
     </g>
     <g id="line2d_6">
      <defs>
       <path d="
M0 0
L0 -4" id="m93b0483c22" style="stroke:#000000;stroke-width:0.5;"/>
      </defs>
      <g>
       <use style="stroke:#000000;stroke-width:0.5;" x="53.581875" xlink:href="#m93b0483c22" y="243.0871875"/>
      </g>
     </g>
     <g id="text_1">
      <!-- 1 -->
      <defs>
       <path d="
M37.25 0
L28.4688 0
L28.4688 56
Q25.2969 52.9844 20.1406 49.9531
Q14.9844 46.9219 10.8906 45.4062
L10.8906 53.9062
Q18.2656 57.375 23.7812 62.2969
Q29.2969 67.2344 31.5938 71.875
L37.25 71.875
z
" id="ArialMT-31"/>
      </defs>
      <g transform="translate(52.0003125 255.6765625)scale(0.12 -0.12)">
       <use xlink:href="#ArialMT-31"/>
      </g>
     </g>
    </g>
    <g id="xtick_2">
     <g id="line2d_7">
      <path clip-path="url(#pda7e10456e)" d="
M104.732 243.087
L104.732 12.6872" style="fill:none;opacity:0.15;stroke:#000000;stroke-dasharray:1.000000,3.000000;stroke-dashoffset:0.0;stroke-width:0.5;"/>
     </g>
     <g id="line2d_8">
      <g>
       <use style="stroke:#000000;stroke-width:0.5;" x="104.731875" xlink:href="#m93b0483c22" y="243.0871875"/>
      </g>
     </g>
     <g id="text_2">
      <!-- 4 -->
      <defs>
       <path d="
M32.3281 0
L32.3281 17.1406
L1.26562 17.1406
L1.26562 25.2031
L33.9375 71.5781
L41.1094 71.5781
L41.1094 25.2031
L50.7812 25.2031
L50.7812 17.1406
L41.1094 17.1406
L41.1094 0
z

M32.3281 25.2031
L32.3281 57.4688
L9.90625 25.2031
z
" id="ArialMT-34"/>
      </defs>
      <g transform="translate(101.7609375 255.6765625)scale(0.12 -0.12)">
       <use xlink:href="#ArialMT-34"/>
      </g>
     </g>
    </g>
    <g id="xtick_3">
     <g id="line2d_9">
      <path clip-path="url(#pda7e10456e)" d="
M155.882 243.087
L155.882 12.6872" style="fill:none;opacity:0.15;stroke:#000000;stroke-dasharray:1.000000,3.000000;stroke-dashoffset:0.0;stroke-width:0.5;"/>
     </g>
     <g id="line2d_10">
      <g>
       <use style="stroke:#000000;stroke-width:0.5;" x="155.881875" xlink:href="#m93b0483c22" y="243.0871875"/>
      </g>
     </g>
     <g id="text_3">
      <!-- 16 -->
      <defs>
       <path d="
M49.75 54.0469
L41.0156 53.375
Q39.8438 58.5469 37.7031 60.8906
Q34.125 64.6562 28.9062 64.6562
Q24.7031 64.6562 21.5312 62.3125
Q17.3906 59.2812 14.9844 53.4688
Q12.5938 47.6562 12.5 36.9219
Q15.6719 41.75 20.2656 44.0938
Q24.8594 46.4375 29.8906 46.4375
Q38.6719 46.4375 44.8438 39.9688
Q51.0312 33.5 51.0312 23.25
Q51.0312 16.5 48.125 10.7188
Q45.2188 4.9375 40.1406 1.85938
Q35.0625 -1.21875 28.6094 -1.21875
Q17.625 -1.21875 10.6875 6.85938
Q3.76562 14.9375 3.76562 33.5
Q3.76562 54.25 11.4219 63.6719
Q18.1094 71.875 29.4375 71.875
Q37.8906 71.875 43.2812 67.1406
Q48.6875 62.4062 49.75 54.0469
M13.875 23.1875
Q13.875 18.6562 15.7969 14.5
Q17.7188 10.3594 21.1875 8.17188
Q24.6562 6 28.4688 6
Q34.0312 6 38.0312 10.4844
Q42.0469 14.9844 42.0469 22.7031
Q42.0469 30.125 38.0781 34.3906
Q34.125 38.6719 28.125 38.6719
Q22.1719 38.6719 18.0156 34.3906
Q13.875 30.125 13.875 23.1875" id="ArialMT-36"/>
      </defs>
      <g transform="translate(150.136875 255.6765625)scale(0.12 -0.12)">
       <use xlink:href="#ArialMT-31"/>
       <use x="55.615234375" xlink:href="#ArialMT-36"/>
      </g>
     </g>
    </g>
    <g id="xtick_4">
     <g id="line2d_11">
      <path clip-path="url(#pda7e10456e)" d="
M207.032 243.087
L207.032 12.6872" style="fill:none;opacity:0.15;stroke:#000000;stroke-dasharray:1.000000,3.000000;stroke-dashoffset:0.0;stroke-width:0.5;"/>
     </g>
     <g id="line2d_12">
      <g>
       <use style="stroke:#000000;stroke-width:0.5;" x="207.031875" xlink:href="#m93b0483c22" y="243.0871875"/>
      </g>
     </g>
     <g id="text_4">
      <!-- 64 -->
      <g transform="translate(200.874375 255.6765625)scale(0.12 -0.12)">
       <use xlink:href="#ArialMT-36"/>
       <use x="55.615234375" xlink:href="#ArialMT-34"/>
      </g>
     </g>
    </g>
    <g id="xtick_5">
     <g id="line2d_13">
      <path clip-path="url(#pda7e10456e)" d="
M258.182 243.087
L258.182 12.6872" style="fill:none;opacity:0.15;stroke:#000000;stroke-dasharray:1.000000,3.000000;stroke-dashoffset:0.0;stroke-width:0.5;"/>
     </g>
     <g id="line2d_14">
      <g>
       <use style="stroke:#000000;stroke-width:0.5;" x="258.181875" xlink:href="#m93b0483c22" y="243.0871875"/>
      </g>
     </g>
     <g id="text_5">
      <!-- 256 -->
      <defs>
       <path d="
M50.3438 8.45312
L50.3438 0
L3.03125 0
Q2.9375 3.17188 4.04688 6.10938
Q5.85938 10.9375 9.82812 15.625
Q13.8125 20.3125 21.3438 26.4688
Q33.0156 36.0312 37.1094 41.625
Q41.2188 47.2188 41.2188 52.2031
Q41.2188 57.4219 37.4688 61
Q33.7344 64.5938 27.7344 64.5938
Q21.3906 64.5938 17.5781 60.7812
Q13.7656 56.9844 13.7188 50.25
L4.6875 51.1719
Q5.60938 61.2812 11.6562 66.5781
Q17.7188 71.875 27.9375 71.875
Q38.2344 71.875 44.2344 66.1562
Q50.25 60.4531 50.25 52
Q50.25 47.7031 48.4844 43.5469
Q46.7344 39.4062 42.6562 34.8125
Q38.5781 30.2188 29.1094 22.2188
Q21.1875 15.5781 18.9375 13.2031
Q16.7031 10.8438 15.2344 8.45312
z
" id="ArialMT-32"/>
       <path d="
M4.15625 18.75
L13.375 19.5312
Q14.4062 12.7969 18.1406 9.39062
Q21.875 6 27.1562 6
Q33.5 6 37.8906 10.7812
Q42.2812 15.5781 42.2812 23.4844
Q42.2812 31 38.0625 35.3438
Q33.8438 39.7031 27 39.7031
Q22.75 39.7031 19.3281 37.7656
Q15.9219 35.8438 13.9688 32.7656
L5.71875 33.8438
L12.6406 70.6094
L48.25 70.6094
L48.25 62.2031
L19.6719 62.2031
L15.8281 42.9688
Q22.2656 47.4688 29.3438 47.4688
Q38.7188 47.4688 45.1562 40.9688
Q51.6094 34.4688 51.6094 24.2656
Q51.6094 14.5469 45.9531 7.46875
Q39.0625 -1.21875 27.1562 -1.21875
Q17.3906 -1.21875 11.2031 4.25
Q5.03125 9.71875 4.15625 18.75" id="ArialMT-35"/>
      </defs>
      <g transform="translate(248.623125 255.6765625)scale(0.12 -0.12)">
       <use xlink:href="#ArialMT-32"/>
       <use x="55.615234375" xlink:href="#ArialMT-35"/>
       <use x="111.23046875" xlink:href="#ArialMT-36"/>
      </g>
     </g>
    </g>
    <g id="xtick_6">
     <g id="line2d_15">
      <path clip-path="url(#pda7e10456e)" d="
M309.332 243.087
L309.332 12.6872" style="fill:none;opacity:0.15;stroke:#000000;stroke-dasharray:1.000000,3.000000;stroke-dashoffset:0.0;stroke-width:0.5;"/>
     </g>
     <g id="line2d_16">
      <g>
       <use style="stroke:#000000;stroke-width:0.5;" x="309.331875" xlink:href="#m93b0483c22" y="243.0871875"/>
      </g>
     </g>
     <g id="text_6">
      <!-- 1024 -->
      <defs>
       <path d="
M4.15625 35.2969
Q4.15625 48 6.76562 55.7344
Q9.375 63.4844 14.5156 67.6719
Q19.6719 71.875 27.4844 71.875
Q33.25 71.875 37.5938 69.5469
Q41.9375 67.2344 44.7656 62.8594
Q47.6094 58.5 49.2188 52.2188
Q50.8281 45.9531 50.8281 35.2969
Q50.8281 22.7031 48.2344 14.9688
Q45.6562 7.23438 40.5 3
Q35.3594 -1.21875 27.4844 -1.21875
Q17.1406 -1.21875 11.2344 6.20312
Q4.15625 15.1406 4.15625 35.2969
M13.1875 35.2969
Q13.1875 17.6719 17.3125 11.8281
Q21.4375 6 27.4844 6
Q33.5469 6 37.6719 11.8594
Q41.7969 17.7188 41.7969 35.2969
Q41.7969 52.9844 37.6719 58.7812
Q33.5469 64.5938 27.3906 64.5938
Q21.3438 64.5938 17.7188 59.4688
Q13.1875 52.9375 13.1875 35.2969" id="ArialMT-30"/>
      </defs>
      <g transform="translate(296.92875 255.6765625)scale(0.12 -0.12)">
       <use xlink:href="#ArialMT-31"/>
       <use x="55.615234375" xlink:href="#ArialMT-30"/>
       <use x="111.23046875" xlink:href="#ArialMT-32"/>
       <use x="166.845703125" xlink:href="#ArialMT-34"/>
      </g>
     </g>
    </g>
    <g id="xtick_7">
     <g id="line2d_17">
      <path clip-path="url(#pda7e10456e)" d="
M360.482 243.087
L360.482 12.6872" style="fill:none;opacity:0.15;stroke:#000000;stroke-dasharray:1.000000,3.000000;stroke-dashoffset:0.0;stroke-width:0.5;"/>
     </g>
     <g id="line2d_18">
      <g>
       <use style="stroke:#000000;stroke-width:0.5;" x="360.481875" xlink:href="#m93b0483c22" y="243.0871875"/>
      </g>
     </g>
     <g id="text_7">
      <!-- 4096 -->
      <defs>
       <path d="
M5.46875 16.5469
L13.9219 17.3281
Q14.9844 11.375 18.0156 8.6875
Q21.0469 6 25.7812 6
Q29.8281 6 32.875 7.85938
Q35.9375 9.71875 37.8906 12.8125
Q39.8438 15.9219 41.1562 21.1875
Q42.4844 26.4688 42.4844 31.9375
Q42.4844 32.5156 42.4375 33.6875
Q39.7969 29.5 35.2344 26.875
Q30.6719 24.2656 25.3438 24.2656
Q16.4531 24.2656 10.2969 30.7031
Q4.15625 37.1562 4.15625 47.7031
Q4.15625 58.5938 10.5781 65.2344
Q17 71.875 26.6562 71.875
Q33.6406 71.875 39.4219 68.1094
Q45.2188 64.3594 48.2188 57.3906
Q51.2188 50.4375 51.2188 37.25
Q51.2188 23.5312 48.2344 15.4062
Q45.2656 7.28125 39.375 3.03125
Q33.5 -1.21875 25.5938 -1.21875
Q17.1875 -1.21875 11.8594 3.4375
Q6.54688 8.10938 5.46875 16.5469
M41.4531 48.1406
Q41.4531 55.7188 37.4219 60.1562
Q33.4062 64.5938 27.7344 64.5938
Q21.875 64.5938 17.5312 59.8125
Q13.1875 55.0312 13.1875 47.4062
Q13.1875 40.5781 17.3125 36.2969
Q21.4375 32.0312 27.4844 32.0312
Q33.5938 32.0312 37.5156 36.2969
Q41.4531 40.5781 41.4531 48.1406" id="ArialMT-39"/>
      </defs>
      <g transform="translate(347.48625 255.6765625)scale(0.12 -0.12)">
       <use xlink:href="#ArialMT-34"/>
       <use x="55.615234375" xlink:href="#ArialMT-30"/>
       <use x="111.23046875" xlink:href="#ArialMT-39"/>
       <use x="166.845703125" xlink:href="#ArialMT-36"/>
      </g>
     </g>
    </g>
    <g id="xtick_8">
     <g id="line2d_19">
      <path clip-path="url(#pda7e10456e)" d="
M411.632 243.087
L411.632 12.6872" style="fill:none;opacity:0.15;stroke:#000000;stroke-dasharray:1.000000,3.000000;stroke-dashoffset:0.0;stroke-width:0.5;"/>
     </g>
     <g id="line2d_20">
      <g>
       <use style="stroke:#000000;stroke-width:0.5;" x="411.631875" xlink:href="#m93b0483c22" y="243.0871875"/>
      </g>
     </g>
     <g id="text_8">
      <!-- 16384 -->
      <defs>
       <path d="
M17.6719 38.8125
Q12.2031 40.8281 9.5625 44.5312
Q6.9375 48.25 6.9375 53.4219
Q6.9375 61.2344 12.5469 66.5469
Q18.1719 71.875 27.4844 71.875
Q36.8594 71.875 42.5781 66.4219
Q48.2969 60.9844 48.2969 53.1719
Q48.2969 48.1875 45.6719 44.5
Q43.0625 40.8281 37.75 38.8125
Q44.3438 36.6719 47.7812 31.875
Q51.2188 27.0938 51.2188 20.4531
Q51.2188 11.2812 44.7188 5.03125
Q38.2344 -1.21875 27.6406 -1.21875
Q17.0469 -1.21875 10.5469 5.04688
Q4.04688 11.3281 4.04688 20.7031
Q4.04688 27.6875 7.59375 32.3906
Q11.1406 37.1094 17.6719 38.8125
M15.9219 53.7188
Q15.9219 48.6406 19.1875 45.4062
Q22.4688 42.1875 27.6875 42.1875
Q32.7656 42.1875 36.0156 45.375
Q39.2656 48.5781 39.2656 53.2188
Q39.2656 58.0625 35.9062 61.3594
Q32.5625 64.6562 27.5938 64.6562
Q22.5625 64.6562 19.2344 61.4219
Q15.9219 58.2031 15.9219 53.7188
M13.0938 20.6562
Q13.0938 16.8906 14.875 13.375
Q16.6562 9.85938 20.1719 7.92188
Q23.6875 6 27.7344 6
Q34.0312 6 38.125 10.0469
Q42.2344 14.1094 42.2344 20.3594
Q42.2344 26.7031 38.0156 30.8594
Q33.7969 35.0156 27.4375 35.0156
Q21.2344 35.0156 17.1562 30.9062
Q13.0938 26.8125 13.0938 20.6562" id="ArialMT-38"/>
       <path d="
M4.20312 18.8906
L12.9844 20.0625
Q14.5 12.5938 18.1406 9.29688
Q21.7812 6 27 6
Q33.2031 6 37.4688 10.2969
Q41.75 14.5938 41.75 20.9531
Q41.75 27 37.7969 30.9219
Q33.8438 34.8594 27.7344 34.8594
Q25.25 34.8594 21.5312 33.8906
L22.5156 41.6094
Q23.3906 41.5 23.9219 41.5
Q29.5469 41.5 34.0312 44.4219
Q38.5312 47.3594 38.5312 53.4688
Q38.5312 58.2969 35.25 61.4688
Q31.9844 64.6562 26.8125 64.6562
Q21.6875 64.6562 18.2656 61.4219
Q14.8438 58.2031 13.875 51.7656
L5.07812 53.3281
Q6.6875 62.1562 12.3906 67.0156
Q18.1094 71.875 26.6094 71.875
Q32.4688 71.875 37.3906 69.3594
Q42.3281 66.8438 44.9375 62.5
Q47.5625 58.1562 47.5625 53.2656
Q47.5625 48.6406 45.0625 44.8281
Q42.5781 41.0156 37.7031 38.7656
Q44.0469 37.3125 47.5625 32.6875
Q51.0781 28.0781 51.0781 21.1406
Q51.0781 11.7656 44.2344 5.25
Q37.4062 -1.26562 26.9531 -1.26562
Q17.5312 -1.26562 11.2969 4.34375
Q5.07812 9.96875 4.20312 18.8906" id="ArialMT-33"/>
      </defs>
      <g transform="translate(395.8921875 255.6765625)scale(0.12 -0.12)">
       <use xlink:href="#ArialMT-31"/>
       <use x="55.615234375" xlink:href="#ArialMT-36"/>
       <use x="111.23046875" xlink:href="#ArialMT-33"/>
       <use x="166.845703125" xlink:href="#ArialMT-38"/>
       <use x="222.4609375" xlink:href="#ArialMT-34"/>
      </g>
     </g>
    </g>
    <g id="xtick_9">
     <g id="line2d_21">
      <path clip-path="url(#pda7e10456e)" d="
M462.782 243.087
L462.782 12.6872" style="fill:none;opacity:0.15;stroke:#000000;stroke-dasharray:1.000000,3.000000;stroke-dashoffset:0.0;stroke-width:0.5;"/>
     </g>
     <g id="line2d_22">
      <g>
       <use style="stroke:#000000;stroke-width:0.5;" x="462.781875" xlink:href="#m93b0483c22" y="243.0871875"/>
      </g>
     </g>
     <g id="text_9">
      <!-- 65536 -->
      <g transform="translate(446.5996875 255.6765625)scale(0.12 -0.12)">
       <use xlink:href="#ArialMT-36"/>
       <use x="55.615234375" xlink:href="#ArialMT-35"/>
       <use x="111.23046875" xlink:href="#ArialMT-35"/>
       <use x="166.845703125" xlink:href="#ArialMT-33"/>
       <use x="222.4609375" xlink:href="#ArialMT-36"/>
      </g>
     </g>
    </g>
    <g id="xtick_10">
     <g id="line2d_23">
      <path clip-path="url(#pda7e10456e)" d="
M513.932 243.087
L513.932 12.6872" style="fill:none;opacity:0.15;stroke:#000000;stroke-dasharray:1.000000,3.000000;stroke-dashoffset:0.0;stroke-width:0.5;"/>
     </g>
     <g id="line2d_24">
      <g>
       <use style="stroke:#000000;stroke-width:0.5;" x="513.931875" xlink:href="#m93b0483c22" y="243.0871875"/>
      </g>
     </g>
     <g id="text_10">
      <!-- 2^18 -->
      <defs>
       <path d="
M11.6719 33.6875
L2.64062 33.6875
L19.875 72.7969
L26.9531 72.7969
L44.2812 33.6875
L35.4531 33.6875
L23.3906 62.8438
z
" id="ArialMT-5e"/>
      </defs>
      <g transform="translate(501.5465625 255.6765625)scale(0.12 -0.12)">
       <use xlink:href="#ArialMT-32"/>
       <use x="55.615234375" xlink:href="#ArialMT-5e"/>
       <use x="102.5390625" xlink:href="#ArialMT-31"/>
       <use x="158.154296875" xlink:href="#ArialMT-38"/>
      </g>
     </g>
    </g>
    <g id="xtick_11">
     <g id="line2d_25">
      <path clip-path="url(#pda7e10456e)" d="
M565.082 243.087
L565.082 12.6872" style="fill:none;opacity:0.15;stroke:#000000;stroke-dasharray:1.000000,3.000000;stroke-dashoffset:0.0;stroke-width:0.5;"/>
     </g>
     <g id="line2d_26">
      <g>
       <use style="stroke:#000000;stroke-width:0.5;" x="565.081875" xlink:href="#m93b0483c22" y="243.0871875"/>
      </g>
     </g>
     <g id="text_11">
      <!-- 2^20 -->
      <g transform="translate(552.72 255.6765625)scale(0.12 -0.12)">
       <use xlink:href="#ArialMT-32"/>
       <use x="55.615234375" xlink:href="#ArialMT-5e"/>
       <use x="102.5390625" xlink:href="#ArialMT-32"/>
       <use x="158.154296875" xlink:href="#ArialMT-30"/>
      </g>
     </g>
    </g>
    <g id="xtick_12">
     <g id="line2d_27">
      <path clip-path="url(#pda7e10456e)" d="
M616.232 243.087
L616.232 12.6872" style="fill:none;opacity:0.15;stroke:#000000;stroke-dasharray:1.000000,3.000000;stroke-dashoffset:0.0;stroke-width:0.5;"/>
     </g>
     <g id="line2d_28">
      <g>
       <use style="stroke:#000000;stroke-width:0.5;" x="616.231875" xlink:href="#m93b0483c22" y="243.0871875"/>
      </g>
     </g>
     <g id="text_12">
      <!-- 2^22 -->
      <g transform="translate(603.8990625 255.6765625)scale(0.12 -0.12)">
       <use xlink:href="#ArialMT-32"/>
       <use x="55.615234375" xlink:href="#ArialMT-5e"/>
       <use x="102.5390625" xlink:href="#ArialMT-32"/>
       <use x="158.154296875" xlink:href="#ArialMT-32"/>
      </g>
     </g>
    </g>
    <g id="xtick_13">
     <g id="line2d_29">
      <path clip-path="url(#pda7e10456e)" d="
M667.382 243.087
L667.382 12.6872" style="fill:none;opacity:0.15;stroke:#000000;stroke-dasharray:1.000000,3.000000;stroke-dashoffset:0.0;stroke-width:0.5;"/>
     </g>
     <g id="line2d_30">
      <g>
       <use style="stroke:#000000;stroke-width:0.5;" x="667.381875" xlink:href="#m93b0483c22" y="243.0871875"/>
      </g>
     </g>
     <g id="text_13">
      <!-- 2^24 -->
      <g transform="translate(655.0228125 255.6765625)scale(0.12 -0.12)">
       <use xlink:href="#ArialMT-32"/>
       <use x="55.615234375" xlink:href="#ArialMT-5e"/>
       <use x="102.5390625" xlink:href="#ArialMT-32"/>
       <use x="158.154296875" xlink:href="#ArialMT-34"/>
      </g>
     </g>
    </g>
    <g id="xtick_14">
     <g id="line2d_31">
      <defs>
       <path d="
M0 0
L0 -2" id="m177f7580d0" style="stroke:#000000;stroke-width:0.5;"/>
      </defs>
      <g>
       <use style="stroke:#000000;stroke-width:0.5;" x="53.581875" xlink:href="#m177f7580d0" y="243.0871875"/>
      </g>
     </g>
    </g>
    <g id="xtick_15">
     <g id="line2d_32">
      <g>
       <use style="stroke:#000000;stroke-width:0.5;" x="104.731875" xlink:href="#m177f7580d0" y="243.0871875"/>
      </g>
     </g>
    </g>
    <g id="xtick_16">
     <g id="line2d_33">
      <g>
       <use style="stroke:#000000;stroke-width:0.5;" x="155.881875" xlink:href="#m177f7580d0" y="243.0871875"/>
      </g>
     </g>
    </g>
    <g id="xtick_17">
     <g id="line2d_34">
      <g>
       <use style="stroke:#000000;stroke-width:0.5;" x="207.031875" xlink:href="#m177f7580d0" y="243.0871875"/>
      </g>
     </g>
    </g>
    <g id="xtick_18">
     <g id="line2d_35">
      <g>
       <use style="stroke:#000000;stroke-width:0.5;" x="258.181875" xlink:href="#m177f7580d0" y="243.0871875"/>
      </g>
     </g>
    </g>
    <g id="xtick_19">
     <g id="line2d_36">
      <g>
       <use style="stroke:#000000;stroke-width:0.5;" x="309.331875" xlink:href="#m177f7580d0" y="243.0871875"/>
      </g>
     </g>
    </g>
    <g id="xtick_20">
     <g id="line2d_37">
      <g>
       <use style="stroke:#000000;stroke-width:0.5;" x="360.481875" xlink:href="#m177f7580d0" y="243.0871875"/>
      </g>
     </g>
    </g>
    <g id="xtick_21">
     <g id="line2d_38">
      <g>
       <use style="stroke:#000000;stroke-width:0.5;" x="411.631875" xlink:href="#m177f7580d0" y="243.0871875"/>
      </g>
     </g>
    </g>
    <g id="xtick_22">
     <g id="line2d_39">
      <g>
       <use style="stroke:#000000;stroke-width:0.5;" x="462.781875" xlink:href="#m177f7580d0" y="243.0871875"/>
      </g>
     </g>
    </g>
    <g id="xtick_23">
     <g id="line2d_40">
      <g>
       <use style="stroke:#000000;stroke-width:0.5;" x="513.931875" xlink:href="#m177f7580d0" y="243.0871875"/>
      </g>
     </g>
    </g>
    <g id="xtick_24">
     <g id="line2d_41">
      <g>
       <use style="stroke:#000000;stroke-width:0.5;" x="565.081875" xlink:href="#m177f7580d0" y="243.0871875"/>
      </g>
     </g>
    </g>
    <g id="xtick_25">
     <g id="line2d_42">
      <g>
       <use style="stroke:#000000;stroke-width:0.5;" x="616.231875" xlink:href="#m177f7580d0" y="243.0871875"/>
      </g>
     </g>
    </g>
    <g id="xtick_26">
     <g id="line2d_43">
      <g>
       <use style="stroke:#000000;stroke-width:0.5;" x="667.381875" xlink:href="#m177f7580d0" y="243.0871875"/>
      </g>
     </g>
    </g>
    <g id="text_14">
     <!-- size -->
     <defs>
      <path d="
M52.9062 25.7031
L52.9062 24.4062
L14.0938 24.4062
Q14.5 16 18.8906 11.5469
Q23.2969 7.09375 30.2969 7.09375
Q37.9062 7.09375 43.5 11.7969
L48.7031 5.29688
Q45 2 40.2969 0.140625
Q35.5938 -1.70312 30.4062 -1.70312
Q24.0938 -1.70312 19.1406 0.59375
Q14.2031 2.90625 10.8438 7
Q7.5 11.0938 5.75 16.6406
Q4 22.2031 4 28.7031
Q4 35 5.64062 40.4531
Q7.29688 45.9062 10.4375 49.8438
Q13.5938 53.7969 18.1875 56.0469
Q22.7969 58.2969 28.5938 58.2969
Q35.0938 58.2969 39.75 55.8438
Q44.4062 53.4062 47.4062 49.0469
Q50.4062 44.7031 51.75 38.7031
Q53.0938 32.7031 52.9062 25.7031
M43.2969 32.4062
Q43.2969 36.5938 42.25 39.7969
Q41.2031 43 39.25 45.1406
Q37.2969 47.2969 34.5469 48.4375
Q31.7969 49.5938 28.5938 49.5938
Q25.4062 49.5938 22.7031 48.3438
Q20 47.0938 18.0938 44.7969
Q16.2031 42.5 15.1406 39.3438
Q14.0938 36.2031 14.0938 32.4062
z
" id="TransportNew-Light-65"/>
      <path d="
M45 0
L3 0
L3 8.09375
L31.7031 48.4062
L4.5 48.4062
L4.5 56.7969
L43.5 56.7969
L43.5 48.7969
L14.5938 8.29688
L45 8.29688
z
" id="TransportNew-Light-7a"/>
      <path d="
M46.5 15.2031
Q46.5 10.9062 44.75 7.70312
Q43 4.5 40.0469 2.39062
Q37.0938 0.296875 33.1406 -0.75
Q29.2031 -1.79688 24.7969 -1.79688
Q18.7969 -1.79688 13.4375 -0.046875
Q8.09375 1.70312 3.5 5.59375
L9.40625 12.7031
Q13.2031 9.70312 17.4531 8.34375
Q21.7031 7 25.2031 7
Q27.4062 7 29.4062 7.39062
Q31.4062 7.79688 32.9062 8.6875
Q34.4062 9.59375 35.2969 11.0938
Q36.2031 12.5938 36.2031 14.7969
Q36.2031 16.4062 35.3906 17.75
Q34.5938 19.0938 33.3438 20.0469
Q32.0938 21 30.4375 21.7031
Q28.7969 22.4062 27.0938 22.9062
L17.2031 25.5
Q14.5938 26.2031 12.25 27.3906
Q9.90625 28.5938 8.09375 30.4375
Q6.29688 32.2969 5.1875 34.8438
Q4.09375 37.4062 4.09375 40.7031
Q4.09375 45 5.84375 48.3438
Q7.59375 51.7031 10.4375 53.8906
Q13.2969 56.0938 17.0469 57.25
Q20.7969 58.4062 24.9062 58.4062
Q30.2969 58.4062 35.3438 56.75
Q40.4062 55.0938 44.7031 51.9062
L39 45.2031
Q36.4062 46.9062 32.9531 48.25
Q29.5 49.5938 25.7031 49.5938
Q23.5 49.5938 21.4531 49.0938
Q19.4062 48.5938 17.8438 47.5938
Q16.2969 46.5938 15.3438 45.0469
Q14.4062 43.5 14.4062 41.4062
Q14.4062 39.0938 16 37.0938
Q17.5938 35.0938 21.7969 34
L32.2031 31.2969
Q35.0938 30.5 37.6875 29.2969
Q40.2969 28.0938 42.25 26.1875
Q44.2031 24.2969 45.3438 21.5938
Q46.5 18.9062 46.5 15.2031" id="TransportNew-Light-73"/>
      <path d="
M18.2969 73.0938
Q18.2969 70.5 16.5469 68.6406
Q14.7969 66.7969 12.2969 66.7969
Q9.70312 66.7969 7.95312 68.6406
Q6.20312 70.5 6.20312 73.0938
Q6.20312 75.7031 7.95312 77.5469
Q9.70312 79.4062 12.2969 79.4062
Q14.7969 79.4062 16.5469 77.5469
Q18.2969 75.7031 18.2969 73.0938
M17.0938 0
L7.5 0
L7.5 56.7031
L17.0938 56.7031
z
" id="TransportNew-Light-69"/>
     </defs>
     <g transform="translate(350.180625 270.4215625)scale(0.12 -0.12)">
      <use xlink:href="#TransportNew-Light-73"/>
      <use x="50.4999847412" xlink:href="#TransportNew-Light-69"/>
      <use x="75.0999755859" xlink:href="#TransportNew-Light-7a"/>
      <use x="122.099960327" xlink:href="#TransportNew-Light-65"/>
     </g>
    </g>
   </g>
   <g id="matplotlib.axis_2">
    <g id="ytick_1">
     <g id="line2d_44">
      <path clip-path="url(#pda7e10456e)" d="
M53.5819 243.087
L667.382 243.087" style="fill:none;opacity:0.15;stroke:#000000;stroke-dasharray:1.000000,3.000000;stroke-dashoffset:0.0;stroke-width:0.5;"/>
     </g>
     <g id="line2d_45">
      <defs>
       <path d="
M0 0
L4 0" id="m728421d6d4" style="stroke:#000000;stroke-width:0.5;"/>
      </defs>
      <g>
       <use style="stroke:#000000;stroke-width:0.5;" x="53.581875" xlink:href="#m728421d6d4" y="243.0871875"/>
      </g>
     </g>
     <g id="text_15">
      <!-- 0 -->
      <g transform="translate(43.98125 246.189375)scale(0.12 -0.12)">
       <use xlink:href="#ArialMT-30"/>
      </g>
     </g>
    </g>
    <g id="ytick_2">
     <g id="line2d_46">
      <path clip-path="url(#pda7e10456e)" d="
M53.5819 210.173
L667.382 210.173" style="fill:none;opacity:0.15;stroke:#000000;stroke-dasharray:1.000000,3.000000;stroke-dashoffset:0.0;stroke-width:0.5;"/>
     </g>
     <g id="line2d_47">
      <g>
       <use style="stroke:#000000;stroke-width:0.5;" x="53.581875" xlink:href="#m728421d6d4" y="210.172901786"/>
      </g>
     </g>
     <g id="text_16">
      <!-- 500 -->
      <g transform="translate(30.635 213.275089286)scale(0.12 -0.12)">
       <use xlink:href="#ArialMT-35"/>
       <use x="55.615234375" xlink:href="#ArialMT-30"/>
       <use x="111.23046875" xlink:href="#ArialMT-30"/>
      </g>
     </g>
    </g>
    <g id="ytick_3">
     <g id="line2d_48">
      <path clip-path="url(#pda7e10456e)" d="
M53.5819 177.259
L667.382 177.259" style="fill:none;opacity:0.15;stroke:#000000;stroke-dasharray:1.000000,3.000000;stroke-dashoffset:0.0;stroke-width:0.5;"/>
     </g>
     <g id="line2d_49">
      <g>
       <use style="stroke:#000000;stroke-width:0.5;" x="53.581875" xlink:href="#m728421d6d4" y="177.258616071"/>
      </g>
     </g>
     <g id="text_17">
      <!-- 1000 -->
      <g transform="translate(24.77 180.360803571)scale(0.12 -0.12)">
       <use xlink:href="#ArialMT-31"/>
       <use x="55.615234375" xlink:href="#ArialMT-30"/>
       <use x="111.23046875" xlink:href="#ArialMT-30"/>
       <use x="166.845703125" xlink:href="#ArialMT-30"/>
      </g>
     </g>
    </g>
    <g id="ytick_4">
     <g id="line2d_50">
      <path clip-path="url(#pda7e10456e)" d="
M53.5819 144.344
L667.382 144.344" style="fill:none;opacity:0.15;stroke:#000000;stroke-dasharray:1.000000,3.000000;stroke-dashoffset:0.0;stroke-width:0.5;"/>
     </g>
     <g id="line2d_51">
      <g>
       <use style="stroke:#000000;stroke-width:0.5;" x="53.581875" xlink:href="#m728421d6d4" y="144.344330357"/>
      </g>
     </g>
     <g id="text_18">
      <!-- 1500 -->
      <g transform="translate(24.77 147.446517857)scale(0.12 -0.12)">
       <use xlink:href="#ArialMT-31"/>
       <use x="55.615234375" xlink:href="#ArialMT-35"/>
       <use x="111.23046875" xlink:href="#ArialMT-30"/>
       <use x="166.845703125" xlink:href="#ArialMT-30"/>
      </g>
     </g>
    </g>
    <g id="ytick_5">
     <g id="line2d_52">
      <path clip-path="url(#pda7e10456e)" d="
M53.5819 111.43
L667.382 111.43" style="fill:none;opacity:0.15;stroke:#000000;stroke-dasharray:1.000000,3.000000;stroke-dashoffset:0.0;stroke-width:0.5;"/>
     </g>
     <g id="line2d_53">
      <g>
       <use style="stroke:#000000;stroke-width:0.5;" x="53.581875" xlink:href="#m728421d6d4" y="111.430044643"/>
      </g>
     </g>
     <g id="text_19">
      <!-- 2000 -->
      <g transform="translate(23.815625 114.532232143)scale(0.12 -0.12)">
       <use xlink:href="#ArialMT-32"/>
       <use x="55.615234375" xlink:href="#ArialMT-30"/>
       <use x="111.23046875" xlink:href="#ArialMT-30"/>
       <use x="166.845703125" xlink:href="#ArialMT-30"/>
      </g>
     </g>
    </g>
    <g id="ytick_6">
     <g id="line2d_54">
      <path clip-path="url(#pda7e10456e)" d="
M53.5819 78.5158
L667.382 78.5158" style="fill:none;opacity:0.15;stroke:#000000;stroke-dasharray:1.000000,3.000000;stroke-dashoffset:0.0;stroke-width:0.5;"/>
     </g>
     <g id="line2d_55">
      <g>
       <use style="stroke:#000000;stroke-width:0.5;" x="53.581875" xlink:href="#m728421d6d4" y="78.5157589286"/>
      </g>
     </g>
     <g id="text_20">
      <!-- 2500 -->
      <g transform="translate(23.815625 81.6179464286)scale(0.12 -0.12)">
       <use xlink:href="#ArialMT-32"/>
       <use x="55.615234375" xlink:href="#ArialMT-35"/>
       <use x="111.23046875" xlink:href="#ArialMT-30"/>
       <use x="166.845703125" xlink:href="#ArialMT-30"/>
      </g>
     </g>
    </g>
    <g id="ytick_7">
     <g id="line2d_56">
      <path clip-path="url(#pda7e10456e)" d="
M53.5819 45.6015
L667.382 45.6015" style="fill:none;opacity:0.15;stroke:#000000;stroke-dasharray:1.000000,3.000000;stroke-dashoffset:0.0;stroke-width:0.5;"/>
     </g>
     <g id="line2d_57">
      <g>
       <use style="stroke:#000000;stroke-width:0.5;" x="53.581875" xlink:href="#m728421d6d4" y="45.6014732143"/>
      </g>
     </g>
     <g id="text_21">
      <!-- 3000 -->
      <g transform="translate(23.9675 48.7036607143)scale(0.12 -0.12)">
       <use xlink:href="#ArialMT-33"/>
       <use x="55.615234375" xlink:href="#ArialMT-30"/>
       <use x="111.23046875" xlink:href="#ArialMT-30"/>
       <use x="166.845703125" xlink:href="#ArialMT-30"/>
      </g>
     </g>
    </g>
    <g id="ytick_8">
     <g id="line2d_58">
      <path clip-path="url(#pda7e10456e)" d="
M53.5819 12.6872
L667.382 12.6872" style="fill:none;opacity:0.15;stroke:#000000;stroke-dasharray:1.000000,3.000000;stroke-dashoffset:0.0;stroke-width:0.5;"/>
     </g>
     <g id="line2d_59">
      <g>
       <use style="stroke:#000000;stroke-width:0.5;" x="53.581875" xlink:href="#m728421d6d4" y="12.6871875"/>
      </g>
     </g>
     <g id="text_22">
      <!-- 3500 -->
      <g transform="translate(23.9675 15.789375)scale(0.12 -0.12)">
       <use xlink:href="#ArialMT-33"/>
       <use x="55.615234375" xlink:href="#ArialMT-35"/>
       <use x="111.23046875" xlink:href="#ArialMT-30"/>
       <use x="166.845703125" xlink:href="#ArialMT-30"/>
      </g>
     </g>
    </g>
    <g id="text_23">
     <!-- normalised rate -->
     <defs>
      <path d="
M33.9062 47.5938
L33 47.5938
Q29.7969 47.7031 26.75 46.6406
Q23.7031 45.5938 21.3438 43.5
Q19 41.4062 17.5938 38.2969
Q16.2031 35.2031 16.2031 31.2031
L16.2031 0
L6.5 0
L6.5 56.7969
L16.2031 56.7969
L16.2031 47.7031
Q18.7031 53.0938 23.2969 55.9375
Q27.9062 58.7969 33.9062 58.2969
z
" id="TransportNew-Light-72"/>
      <path d="
M36.2031 -0.296875
Q34.2031 -0.796875 32.0469 -1.29688
Q29.9062 -1.79688 26.5 -1.79688
Q23.4062 -1.79688 20.6562 -0.796875
Q17.9062 0.203125 15.8438 2.20312
Q13.7969 4.20312 12.5938 7.14062
Q11.4062 10.0938 11.4062 14.0938
L11.4062 48.9062
L2 48.9062
L2 56.7969
L11.4062 56.7969
L11.4062 71.5
L20.9062 75.7969
L20.9062 56.7969
L35.5938 56.7969
L35.5938 48.9062
L20.9062 48.9062
L20.9062 16.2969
Q20.9062 11.0938 22.9531 9.09375
Q25 7.09375 29.4062 7.09375
Q32 7.09375 34.7031 7.90625
z
" id="TransportNew-Light-74"/>
      <path d="
M53.0938 0
L43.5 0
L43.5 5.59375
Q40.7969 2 37 0.09375
Q33.2031 -1.79688 28.0938 -1.79688
Q22.5 -1.79688 18.0469 0.640625
Q13.5938 3.09375 10.4375 7.1875
Q7.29688 11.2969 5.64062 16.5469
Q4 21.7969 4 27.4062
Q4 33.7969 5.70312 39.25
Q7.40625 44.7031 10.5 48.75
Q13.5938 52.7969 17.9375 55.0938
Q22.2969 57.4062 27.5938 57.4062
Q32.7969 57.4062 36.75 55.5469
Q40.7031 53.7031 43.5 50.4062
L43.5 78
L53.0938 78
z

M43.5938 19.5938
L43.5938 35.7969
Q43.5938 38.7969 42.3438 41.0938
Q41.0938 43.4062 39.1406 44.9062
Q37.2031 46.4062 34.8906 47.2031
Q32.5938 48 30.5 48
Q26.4062 48 23.2969 46.3438
Q20.2031 44.7031 18.0938 41.8906
Q16 39.0938 14.9531 35.3906
Q13.9062 31.7031 13.9062 27.5938
Q13.9062 24 14.9531 20.3906
Q16 16.7969 18.0469 14
Q20.0938 11.2031 23.1406 9.45312
Q26.2031 7.70312 30.2031 7.70312
Q32 7.70312 34.2969 8.39062
Q36.5938 9.09375 38.6406 10.5
Q40.7031 11.9062 42.1406 14.1562
Q43.5938 16.4062 43.5938 19.5938" id="TransportNew-Light-64"/>
      <path d="
M51.7031 5.90625
L47.2969 -1.90625
Q44.4062 -1.20312 42.75 0.046875
Q41.0938 1.29688 39.4062 3.90625
Q36.5938 1.20312 32.8906 -0.25
Q29.2031 -1.70312 23.7031 -1.70312
Q19.7969 -1.70312 16.25 -0.546875
Q12.7031 0.59375 9.95312 2.75
Q7.20312 4.90625 5.59375 8.04688
Q4 11.2031 4 15.2969
Q4 21.0938 6.25 24.6406
Q8.5 28.2031 11.5938 30.1406
Q14.7031 32.0938 18.0469 32.8906
Q21.4062 33.7031 23.5938 33.9062
Q24.7969 34 26.4375 34.1406
Q28.0938 34.2969 29.9375 34.4375
Q31.7969 34.5938 33.7969 34.75
Q35.7969 34.9062 37.7031 35
L37.7031 38.4062
Q37.7031 44.4062 35.1406 46.9531
Q32.5938 49.5 27 49.5
Q23.2031 49.5 19.0469 48.3438
Q14.9062 47.2031 11.5 45.2031
L7.90625 53.0938
Q12.4062 55.5938 17.5 57
Q22.5938 58.4062 28 58.4062
Q37.5938 58.4062 42.3906 53.3438
Q47.2031 48.2969 47.2031 37.7031
L47.2031 14.7969
Q47.2031 11 48.2969 9.04688
Q49.4062 7.09375 51.7031 5.90625
M37.5938 16.2031
L37.5938 27.0938
Q34.4062 26.9062 31.5469 26.75
Q28.7031 26.5938 26.9062 26.4062
Q24.5938 26.0938 22.2969 25.6406
Q20 25.2031 18.0938 24.0938
Q16.2031 23 15 21.0469
Q13.7969 19.0938 13.7969 15.9062
Q13.7969 13.4062 14.8906 11.6562
Q16 9.90625 17.6406 8.75
Q19.2969 7.59375 21.2969 7.04688
Q23.2969 6.5 25.0938 6.5
Q30.7969 6.5 34.1875 9.09375
Q37.5938 11.7031 37.5938 16.2031" id="TransportNew-Light-61"/>
      <path id="TransportNew-Light-20"/>
      <path d="
M55 27.7031
Q55 21.2031 53.2031 15.7969
Q51.4062 10.4062 48.0938 6.5
Q44.7969 2.59375 40.0938 0.4375
Q35.4062 -1.70312 29.5938 -1.70312
Q23.7969 -1.70312 19.0938 0.4375
Q14.4062 2.59375 11.0469 6.5
Q7.70312 10.4062 5.84375 15.75
Q4 21.0938 4 27.5938
Q4 34.4062 5.70312 40.0469
Q7.40625 45.7031 10.6562 49.7969
Q13.9062 53.9062 18.6562 56.2031
Q23.4062 58.5 29.5938 58.5
Q35.7031 58.5 40.4531 56.2031
Q45.2031 53.9062 48.3906 49.7969
Q51.5938 45.7031 53.2969 40.0469
Q55 34.4062 55 27.7031
M45.5 27.5938
Q45.5 31.7031 44.4531 35.6406
Q43.4062 39.5938 41.4062 42.6875
Q39.4062 45.7969 36.4531 47.6875
Q33.5 49.5938 29.5938 49.5938
Q25.7031 49.5938 22.7031 47.6875
Q19.7031 45.7969 17.6406 42.6875
Q15.5938 39.5938 14.5938 35.6406
Q13.5938 31.7031 13.5938 27.5938
Q13.5938 23.4062 14.6406 19.7031
Q15.7031 16 17.75 13.25
Q19.7969 10.5 22.7969 8.84375
Q25.7969 7.20312 29.5938 7.20312
Q33.4062 7.20312 36.3438 8.84375
Q39.2969 10.5 41.3438 13.25
Q43.4062 16 44.4531 19.7031
Q45.5 23.4062 45.5 27.5938" id="TransportNew-Light-6f"/>
      <path d="
M80.2031 39.4062
L80.2031 0
L70.5938 0
L70.5938 38.5
Q70.5938 41.2031 69.7969 43.1406
Q69 45.0938 67.6406 46.3438
Q66.2969 47.5938 64.4375 48.25
Q62.5938 48.9062 60.5938 48.9062
Q58.5 48.9062 56.2969 47.9531
Q54.0938 47 52.2969 45.2031
Q50.5 43.4062 49.3438 40.9062
Q48.2031 38.4062 48.2031 35.2969
L48.2031 0
L38.5938 0
L38.5 38.5938
Q38.5 43.7031 36 46.3438
Q33.5 49 29 49
Q26.5 49 24.2031 48
Q21.9062 47 20.0938 45.2031
Q18.2969 43.4062 17.1875 40.9062
Q16.0938 38.4062 16.0938 35.2969
L16.0938 0
L6.5 0
L6.5 56.7969
L16.0938 56.7969
L16.0938 50.5938
Q19.5938 54.7969 23.3438 56.5469
Q27.0938 58.2969 31.2031 58.2969
Q36 58.2969 39.75 56.1875
Q43.5 54.0938 45.9062 49.9062
Q49.5938 54.5 53.4375 56.4531
Q57.2969 58.4062 61.7969 58.4062
Q66.0938 58.4062 69.5 57
Q72.9062 55.5938 75.2969 53.0938
Q77.7031 50.5938 78.9531 47.0938
Q80.2031 43.5938 80.2031 39.4062" id="TransportNew-Light-6d"/>
      <path d="
M50.2031 0
L40.5 0
L40.5 36.2031
Q40.5 42.4062 37.5938 45.7031
Q34.7031 49 29.2969 49
Q27 49 24.6406 48.2969
Q22.2969 47.5938 20.4375 45.9375
Q18.5938 44.2969 17.3906 41.6875
Q16.2031 39.0938 16.2031 35.2969
L16.2031 0
L6.5 0
L6.5 56.7969
L16.2031 56.7969
L16.2031 50.5938
Q19.4062 54.5938 23.3438 56.5
Q27.2969 58.4062 31.7031 58.4062
Q35.7969 58.4062 39.1875 56.9062
Q42.5938 55.4062 45.0469 52.75
Q47.5 50.0938 48.8438 46.4375
Q50.2031 42.7969 50.2031 38.5
z
" id="TransportNew-Light-6e"/>
      <path d="
M28.5938 -0.703125
Q26.5938 -1.20312 24.8906 -1.45312
Q23.2031 -1.70312 21 -1.70312
Q17.7031 -1.70312 15 -0.5
Q12.2969 0.703125 10.3906 2.84375
Q8.5 5 7.5 7.95312
Q6.5 10.9062 6.5 14.4062
L6.5 78
L16 78
L16 15.2969
Q16 11.4062 17.7969 9.25
Q19.5938 7.09375 23.2031 7.09375
Q24.5 7.09375 25.4531 7.25
Q26.4062 7.40625 27.5 7.70312
z
" id="TransportNew-Light-6c"/>
     </defs>
     <g transform="translate(16.56 171.57375)rotate(-90.0)scale(0.12 -0.12)">
      <use xlink:href="#TransportNew-Light-6e"/>
      <use x="56.1999969482" xlink:href="#TransportNew-Light-6f"/>
      <use x="115.199981689" xlink:href="#TransportNew-Light-72"/>
      <use x="151.099975586" xlink:href="#TransportNew-Light-6d"/>
      <use x="237.299957275" xlink:href="#TransportNew-Light-61"/>
      <use x="291.999954224" xlink:href="#TransportNew-Light-6c"/>
      <use x="322.099945068" xlink:href="#TransportNew-Light-69"/>
      <use x="346.699935913" xlink:href="#TransportNew-Light-73"/>
      <use x="397.199920654" xlink:href="#TransportNew-Light-65"/>
      <use x="454.099914551" xlink:href="#TransportNew-Light-64"/>
      <use x="513.699905396" xlink:href="#TransportNew-Light-20"/>
      <use x="545.699890137" xlink:href="#TransportNew-Light-72"/>
      <use x="581.599884033" xlink:href="#TransportNew-Light-61"/>
      <use x="636.299880981" xlink:href="#TransportNew-Light-74"/>
      <use x="674.99987793" xlink:href="#TransportNew-Light-65"/>
     </g>
    </g>
   </g>
   <g id="patch_3">
    <path d="
M53.5819 243.087
L667.382 243.087" style="fill:none;stroke:#000000;"/>
   </g>
   <g id="patch_4">
    <path d="
M53.5819 243.087
L53.5819 12.6872" style="fill:none;stroke:#000000;"/>
   </g>
   <g id="legend_1">
    <g id="patch_5">
     <path d="
M525.263 92.9184
L661.382 92.9184
L661.382 18.6872
L525.263 18.6872
L525.263 92.9184
z
" style="fill:#ffffff;opacity:0.9;stroke:#000000;stroke-width:0.3;"/>
    </g>
    <g id="line2d_60">
     <path d="
M533.663 28.8159
L550.462 28.8159" style="fill:none;stroke:#007ab0;stroke-linecap:square;"/>
    </g>
    <g id="line2d_61"/>
    <g id="text_24">
     <!-- Signalsmith -->
     <defs>
      <path d="
M61.5938 20.2969
Q61.5938 15.4062 59.7969 11.3438
Q58 7.29688 54.4531 4.39062
Q50.9062 1.5 45.5938 -0.09375
Q40.2969 -1.70312 33.2031 -1.70312
Q24.5938 -1.70312 17.1406 1.75
Q9.70312 5.20312 4 11.5
L12 18.5
Q13.7969 16.2031 16.2969 14.25
Q18.7969 12.2969 21.5938 10.8438
Q24.4062 9.40625 27.4062 8.54688
Q30.4062 7.70312 33.2031 7.70312
Q37.0938 7.70312 40.3438 8.39062
Q43.5938 9.09375 45.9375 10.5938
Q48.2969 12.0938 49.6406 14.3438
Q51 16.5938 51 19.5938
Q51 22.9062 49.75 25.2031
Q48.5 27.5 46.5469 29.0938
Q44.5938 30.7031 42.1875 31.5938
Q39.7969 32.5 37.5 33.0938
L26.2031 36
Q22.0938 37 18.3906 38.5938
Q14.7031 40.2031 11.7969 42.75
Q8.90625 45.2969 7.20312 49
Q5.5 52.7031 5.5 57.9062
Q5.5 62.2969 7.29688 66.1875
Q9.09375 70.0938 12.5469 73.0469
Q16 76 21 77.7031
Q26 79.4062 32.5 79.4062
Q36.2031 79.4062 39.8906 78.7969
Q43.5938 78.2031 47 76.9531
Q50.4062 75.7031 53.4062 73.6406
Q56.4062 71.5938 58.7969 68.5938
L50.7969 61.7969
Q47.4062 66.0938 42.5 68.0469
Q37.5938 70 32.5 70
Q29.5 70 26.5469 69.3438
Q23.5938 68.7031 21.2969 67.25
Q19 65.7969 17.5469 63.6406
Q16.0938 61.5 16.0938 58.5
Q16.0938 55.7031 17.1875 53.7031
Q18.2969 51.7031 20.25 50.2031
Q22.2031 48.7031 24.8906 47.6406
Q27.5938 46.5938 30.7031 45.7969
L40.5938 43.2031
Q51.5938 40.2969 56.5938 34.7969
Q61.5938 29.2969 61.5938 20.2969" id="TransportNew-Light-53"/>
      <path d="
M49.9062 0.5
Q49.9062 -4.79688 48.0938 -8.4375
Q46.2969 -12.0938 43.1406 -14.3906
Q40 -16.7031 35.7031 -17.75
Q31.4062 -18.7969 26.4062 -18.7969
Q21.2969 -18.7969 16.8438 -17.6875
Q12.4062 -16.5938 7.90625 -14.0938
L11.5 -5.90625
Q15.2031 -7.70312 18.8438 -8.79688
Q22.5 -9.90625 26.7969 -9.90625
Q29.5 -9.90625 32 -9.45312
Q34.5 -9 36.4531 -7.70312
Q38.4062 -6.40625 39.5469 -4.20312
Q40.7031 -2 40.7031 1.5
L40.7031 11.2031
Q38.0938 8 34.1875 6.25
Q30.2969 4.5 25.5 4.5
Q20.2969 4.5 16.2969 6.54688
Q12.2969 8.59375 9.54688 12.1875
Q6.79688 15.7969 5.39062 20.7969
Q4 25.7969 4 31.7969
Q4 37.0938 5.64062 41.9375
Q7.29688 46.7969 10.1875 50.4375
Q13.0938 54.0938 17 56.25
Q20.9062 58.4062 25.5 58.4062
Q30.9062 58.4062 34.7031 56.3438
Q38.5 54.2969 40.7031 51.0938
L40.7031 56.7031
L49.9062 56.7031
z

M41 31.4062
Q41 34.7969 40.1406 38
Q39.2969 41.2031 37.5938 43.6406
Q35.9062 46.0938 33.2969 47.5469
Q30.7031 49 27.2969 49
Q24 49 21.4531 47.5469
Q18.9062 46.0938 17.0938 43.6875
Q15.2969 41.2969 14.3906 38.0938
Q13.5 34.9062 13.5 31.4062
Q13.5 27.9062 14.3438 24.7031
Q15.2031 21.5 16.8906 19.0938
Q18.5938 16.7031 21.1875 15.25
Q23.7969 13.7969 27.2969 13.7969
Q31 13.7969 33.5938 15.25
Q36.2031 16.7031 37.8438 19.1406
Q39.5 21.5938 40.25 24.75
Q41 27.9062 41 31.4062" id="TransportNew-Light-67"/>
      <path d="
M49.7031 37.2969
L49.7031 0
L40 0
L40 36.4062
Q40 42.2031 37.0938 45.2031
Q34.2031 48.2031 29.2031 48.2031
Q26.5 48.2031 24.1406 47.3438
Q21.7969 46.5 20 44.7969
Q18.2031 43.0938 17.1406 40.5938
Q16.0938 38.0938 16.0938 34.9062
L16.0938 0
L6.5 0
L6.5 78
L16.0938 78
L16.0938 50.5
Q22.5 57.5938 32.0938 57.5938
Q35.7031 57.5938 38.8906 56.1406
Q42.0938 54.7031 44.5 52
Q46.9062 49.2969 48.2969 45.5469
Q49.7031 41.7969 49.7031 37.2969" id="TransportNew-Light-68"/>
     </defs>
     <g transform="translate(563.6625 33.0159375)scale(0.12 -0.12)">
      <use xlink:href="#TransportNew-Light-53"/>
      <use x="67.0999908447" xlink:href="#TransportNew-Light-69"/>
      <use x="91.6999816895" xlink:href="#TransportNew-Light-67"/>
      <use x="148.099975586" xlink:href="#TransportNew-Light-6e"/>
      <use x="204.299972534" xlink:href="#TransportNew-Light-61"/>
      <use x="258.999969482" xlink:href="#TransportNew-Light-6c"/>
      <use x="289.099960327" xlink:href="#TransportNew-Light-73"/>
      <use x="339.599945068" xlink:href="#TransportNew-Light-6d"/>
      <use x="425.799926758" xlink:href="#TransportNew-Light-69"/>
      <use x="450.399917603" xlink:href="#TransportNew-Light-74"/>
      <use x="489.099914551" xlink:href="#TransportNew-Light-68"/>
     </g>
    </g>
    <g id="line2d_62">
     <path d="
M533.663 46.4316
L550.462 46.4316" style="fill:none;stroke:#bb102b;stroke-dasharray:1.513200,1.513200;stroke-dashoffset:0.0;stroke-width:1.261;"/>
    </g>
    <g id="line2d_63"/>
    <g id="text_25">
     <!-- FFTW (estimate) -->
     <defs>
      <path d="
M53.7031 68.5938
L18.4062 68.5938
L18.4062 44.2031
L50.7031 44.2031
L50.7031 34.7969
L18.4062 34.7969
L18.4062 0
L8 0
L8 78
L53.7031 78
z
" id="TransportNew-Light-46"/>
      <path d="
M32.9062 38.9062
Q32.9062 32.2031 31.4062 25.4531
Q29.9062 18.7031 27.0469 12.5
Q24.2031 6.29688 20.0469 0.890625
Q15.9062 -4.5 10.7031 -8.59375
L6 -3.29688
Q13.9062 5 17.9531 15.8438
Q22 26.7031 22 38.9062
Q22 44.9062 20.9531 50.7969
Q19.9062 56.7031 17.9062 62.1406
Q15.9062 67.5938 12.9531 72.4375
Q10 77.2969 6.20312 81.0938
L10.9062 86.2969
Q16.0938 82.2031 20.1875 76.7969
Q24.2969 71.4062 27.1406 65.2031
Q30 59 31.4531 52.2969
Q32.9062 45.5938 32.9062 38.9062" id="TransportNew-Light-29"/>
      <path d="
M90.2969 78
L72.9062 0
L60.9062 0
L46.4062 63.5938
L31.9062 0
L19.7969 0
L2.5 78
L13.2031 78
L26.7969 16
L40.5938 78
L52.2969 78
L66 16
L79.5938 78
z
" id="TransportNew-Light-57"/>
      <path d="
M31.9062 -3.29688
L27.2031 -8.59375
Q21.9062 -4.5 17.7969 0.890625
Q13.7031 6.29688 10.8438 12.5
Q8 18.7031 6.5 25.4531
Q5 32.2031 5 38.9062
Q5 45.5938 6.45312 52.2969
Q7.90625 59 10.75 65.2031
Q13.5938 71.4062 17.6406 76.7969
Q21.7031 82.2031 27 86.2969
L31.7031 81.0938
Q27.9062 77.2969 24.9531 72.4375
Q22 67.5938 19.9531 62.1406
Q17.9062 56.7031 16.8438 50.7969
Q15.7969 44.9062 15.7969 38.9062
Q15.7969 26.7031 19.8906 15.8438
Q24 5 31.9062 -3.29688" id="TransportNew-Light-28"/>
      <path d="
M55.0938 68.5938
L33.7031 68.5938
L33.7031 0
L23.2969 0
L23.2969 68.5938
L2 68.5938
L2 78
L55.0938 78
z
" id="TransportNew-Light-54"/>
     </defs>
     <g transform="translate(563.6625 50.6315625)scale(0.12 -0.12)">
      <use xlink:href="#TransportNew-Light-46"/>
      <use x="57.1999969482" xlink:href="#TransportNew-Light-46"/>
      <use x="114.399993896" xlink:href="#TransportNew-Light-54"/>
      <use x="171.499984741" xlink:href="#TransportNew-Light-57"/>
      <use x="264.299972534" xlink:href="#TransportNew-Light-20"/>
      <use x="296.299957275" xlink:href="#TransportNew-Light-28"/>
      <use x="334.199951172" xlink:href="#TransportNew-Light-65"/>
      <use x="391.099945068" xlink:href="#TransportNew-Light-73"/>
      <use x="441.59992981" xlink:href="#TransportNew-Light-74"/>
      <use x="480.299926758" xlink:href="#TransportNew-Light-69"/>
      <use x="504.899917603" xlink:href="#TransportNew-Light-6d"/>
      <use x="591.099899292" xlink:href="#TransportNew-Light-61"/>
      <use x="645.79989624" xlink:href="#TransportNew-Light-74"/>
      <use x="684.499893188" xlink:href="#TransportNew-Light-65"/>
      <use x="741.399887085" xlink:href="#TransportNew-Light-29"/>
     </g>
    </g>
    <g id="line2d_64">
     <path d="
M533.663 64.0472
L550.462 64.0472" style="fill:none;stroke:#44a730;stroke-dasharray:3.424876,1.957072;stroke-dashoffset:0.0;stroke-width:1.22317;"/>
    </g>
    <g id="line2d_65"/>
    <g id="text_26">
     <!-- FFTW (measure) -->
     <defs>
      <path d="
M49.7031 0
L40 0
L40 6.09375
Q36.7969 2.29688 32.8438 0.296875
Q28.9062 -1.70312 24.5 -1.70312
Q20.4062 -1.70312 17 -0.203125
Q13.5938 1.29688 11.1406 4
Q8.70312 6.70312 7.34375 10.3438
Q6 14 6 18.2969
L6 56.7969
L15.7031 56.7969
L15.7031 20.5938
Q15.7031 14.4062 18.5938 11.0938
Q21.5 7.79688 26.9062 7.79688
Q29.0938 7.79688 31.4375 8.5
Q33.7969 9.20312 35.6875 10.8438
Q37.5938 12.5 38.7969 15.0938
Q40 17.7031 40 21.5
L40 56.7969
L49.7031 56.7969
z
" id="TransportNew-Light-75"/>
     </defs>
     <g transform="translate(563.6625 68.2471875)scale(0.12 -0.12)">
      <use xlink:href="#TransportNew-Light-46"/>
      <use x="57.1999969482" xlink:href="#TransportNew-Light-46"/>
      <use x="114.399993896" xlink:href="#TransportNew-Light-54"/>
      <use x="171.499984741" xlink:href="#TransportNew-Light-57"/>
      <use x="264.299972534" xlink:href="#TransportNew-Light-20"/>
      <use x="296.299957275" xlink:href="#TransportNew-Light-28"/>
      <use x="334.199951172" xlink:href="#TransportNew-Light-6d"/>
      <use x="420.399932861" xlink:href="#TransportNew-Light-65"/>
      <use x="477.299926758" xlink:href="#TransportNew-Light-61"/>
      <use x="531.999923706" xlink:href="#TransportNew-Light-73"/>
      <use x="582.499908447" xlink:href="#TransportNew-Light-75"/>
      <use x="638.699905396" xlink:href="#TransportNew-Light-72"/>
      <use x="674.599899292" xlink:href="#TransportNew-Light-65"/>
      <use x="731.499893188" xlink:href="#TransportNew-Light-29"/>
     </g>
    </g>
    <g id="line2d_66">
     <path d="
M533.663 81.6628
L550.462 81.6628" style="fill:none;stroke:#87694f;stroke-dasharray:5.932374,4.745900;stroke-dashoffset:0.0;stroke-width:1.1864749;"/>
    </g>
    <g id="line2d_67"/>
    <g id="text_27">
     <!-- KissFFT -->
     <defs>
      <path d="
M64.4062 0
L53 0
L29.9062 38.9062
L18.4062 25
L18.4062 0
L8 0
L8 78
L18.4062 78
L18.4062 39.2031
L49.9062 78
L62.5 78
L36.4062 46.0938
z
" id="TransportNew-Light-4b"/>
     </defs>
     <g transform="translate(563.6625 85.8628125)scale(0.12 -0.12)">
      <use xlink:href="#TransportNew-Light-4b"/>
      <use x="66.3999938965" xlink:href="#TransportNew-Light-69"/>
      <use x="90.9999847412" xlink:href="#TransportNew-Light-73"/>
      <use x="141.499969482" xlink:href="#TransportNew-Light-73"/>
      <use x="191.999954224" xlink:href="#TransportNew-Light-46"/>
      <use x="249.199951172" xlink:href="#TransportNew-Light-46"/>
      <use x="306.39994812" xlink:href="#TransportNew-Light-54"/>
     </g>
    </g>
   </g>
  </g>
 </g>
 <defs>
  <clipPath id="pda7e10456e">
   <rect height="231.4" width="614.8" x="53.581875" y="11.6871875"/>
  </clipPath>
 </defs>
</svg>
